# xmcd CD database file
#
# Track frame offsets:
#	150
#	19937
#	45907
#	59340
#	74840
#
# Disc length: 1350 seconds
#
# Revision: 0
# Processed by: cddbd v1.5.1PL0 Copyright (c) Steve Scherf et al.
# Submitted via: CDex 1.51
#
DISCID=42054405
DTITLE=WRENCH - ヒポテーゼ
DYEAR=1900
DGENRE=
TTITLE0=線より点で
TTITLE1=オアシス浮上
TTITLE2=極
TTITLE3=説明はいらず
TTITLE4=ヒポテーゼ
EXTD=
EXTT0=
EXTT1=
EXTT2=
EXTT3=
EXTT4=
PLAYORDER=
